<svg width="30" height="30" viewBox="0 0 30 30" fill="none" xmlns="http://www.w3.org/2000/svg">
<path d="M11.7834 21.8952H22.4502C23.7825 21.8952 24.2577 21.5194 24.2577 20.7845C24.2577 18.63 21.5168 15.6571 17.1125 15.6571C12.7168 15.6571 9.97588 18.63 9.97588 20.7845C9.97588 21.5194 10.4511 21.8952 11.7834 21.8952ZM17.121 14.1623C18.9455 14.1623 20.5154 12.5589 20.5154 10.4712C20.5154 8.40857 18.9371 6.88037 17.121 6.88037C15.305 6.88037 13.7266 8.44198 13.7266 10.4879C13.7266 12.5589 15.2965 14.1623 17.121 14.1623ZM2.61853 21.8952H9.06789C8.18532 20.6342 9.26305 18.0956 11.0875 16.7093C10.1455 16.0914 8.93204 15.632 7.3452 15.632C3.51804 15.632 1.125 18.4129 1.125 20.7261C1.125 21.4777 1.5493 21.8952 2.61853 21.8952ZM7.35369 14.3544C8.93204 14.3544 10.3068 12.9514 10.3068 11.1393C10.3068 9.34387 8.92357 8.01608 7.35369 8.01608C5.77531 8.01608 4.38361 9.37727 4.39209 11.156C4.39209 12.9514 5.76682 14.3544 7.35369 14.3544ZM23.4006 13.9118C23.6892 14.1038 24.088 14.0454 24.3171 13.7197C24.9705 12.8762 25.3609 11.632 25.3609 10.3543C25.3609 9.07664 24.9705 7.84072 24.3171 6.98894C24.088 6.66325 23.6892 6.60479 23.4006 6.79686C23.0612 7.03069 23.0018 7.44823 23.2733 7.79062C23.7655 8.45868 24.0455 9.38562 24.0455 10.3543C24.0455 11.323 23.757 12.2416 23.2733 12.918C23.0103 13.2687 23.0612 13.6696 23.4006 13.9118ZM26.5489 16.0914C26.8629 16.3001 27.2532 16.225 27.4824 15.9077C28.5686 14.4379 29.205 12.417 29.205 10.3543C29.205 8.29166 28.5771 6.25406 27.4824 4.80101C27.2532 4.48368 26.8629 4.40852 26.5489 4.61729C26.235 4.82607 26.1841 5.21856 26.4301 5.56094C27.3551 6.84697 27.8897 8.57559 27.8897 10.3543C27.8897 12.1331 27.3381 13.8533 26.4301 15.1477C26.1925 15.4901 26.235 15.8826 26.5489 16.0914Z" fill="#9EFF00"/>
</svg>
