<svg width="30" height="30" viewBox="0 0 30 30" fill="none" xmlns="http://www.w3.org/2000/svg">
<path d="M6.6281 20.8667L6.93498 22.0942C7.32369 23.69 8.17272 24.5084 9.86054 24.5084H20.8774C22.5755 24.5084 23.4143 23.7105 23.8132 22.0942L24.1201 20.8667H6.6281ZM6.29054 19.4653H24.4678L26.3909 11.5888L25.5521 11.1081L20.8365 14.5451C20.4887 14.7906 20.2534 14.6985 20.059 14.4224L15.6196 7.71198L15.1286 7.69152L10.6482 14.453C10.4743 14.719 10.2697 14.8008 9.92191 14.5553L5.29831 11.1797L4.3163 11.4354L6.29054 19.4653ZM4.69478 13.6347C6.04504 13.6347 7.12933 12.5402 7.12933 11.1797C7.12933 9.84988 6.04504 8.74512 4.69478 8.74512C3.34453 8.74512 2.25 9.83965 2.25 11.1797C2.25 12.5402 3.35475 13.6347 4.69478 13.6347ZM15.3741 9.37933C16.7141 9.37933 17.8086 8.28481 17.8086 6.93455C17.8086 5.60475 16.7141 4.5 15.3741 4.5C14.0136 4.5 12.9293 5.59453 12.9293 6.93455C12.9293 8.28481 14.0238 9.37933 15.3741 9.37933ZM26.0431 13.6347C27.3832 13.6347 28.4879 12.5402 28.4879 11.1797C28.4879 9.83965 27.3934 8.74512 26.0431 8.74512C24.7032 8.74512 23.6086 9.84988 23.6086 11.1797C23.6086 12.5402 24.7032 13.6347 26.0431 13.6347Z" fill="#9EFF00"/>
</svg>
