<svg width="13" height="13" viewBox="0 0 13 13" fill="none" xmlns="http://www.w3.org/2000/svg">
<path d="M1.66443 0.285571C1.28367 -0.0951903 0.666332 -0.0951903 0.285571 0.285571C-0.0951903 0.666332 -0.0951903 1.28367 0.285571 1.66443L5.12114 6.5L0.285571 11.3356C-0.0951903 11.7163 -0.0951903 12.3337 0.285571 12.7144C0.666332 13.0952 1.28367 13.0952 1.66443 12.7144L6.5 7.87886L11.3356 12.7144C11.7163 13.0952 12.3337 13.0952 12.7144 12.7144C13.0952 12.3337 13.0952 11.7163 12.7144 11.3356L7.87886 6.5L12.7144 1.66443C13.0952 1.28367 13.0952 0.666332 12.7144 0.285571C12.3337 -0.0951903 11.7163 -0.0951903 11.3356 0.285571L6.5 5.12114L1.66443 0.285571Z" fill="#C5FF66"/>
</svg>
