<svg width="80" height="40" viewBox="0 0 80 40" fill="none" xmlns="http://www.w3.org/2000/svg">
<g clip-path="url(#clip0_92_36093)">
<path d="M0.000976562 29.4959L8.21301 16.7177H0.9738C0.91245 16.3496 0.886158 15.9464 0.886158 15.4995C0.886158 15.07 0.91245 14.6756 0.9738 14.3163H12.6915L12.8405 14.7107L4.56711 27.5152H12.3234C12.3848 27.9183 12.411 28.339 12.411 28.7597C12.411 29.1628 12.3848 29.5484 12.3234 29.9165H0.149967L0.000976562 29.4959Z" fill="#E6E6E6"/>
<path d="M23.6994 19.6363C23.6994 18.4356 23.3926 17.6118 22.7879 17.1385C22.1832 16.674 21.298 16.4374 20.1411 16.4374C19.4312 16.4374 18.7651 16.49 18.1516 16.6039C17.5294 16.7179 16.9334 16.8581 16.3375 17.0421C15.9518 16.3761 15.759 15.5698 15.759 14.6407C16.4514 14.4216 17.2051 14.2464 18.0377 14.1237C18.8703 14.001 19.6678 13.9396 20.4391 13.9396C22.4636 13.9396 24.0061 14.4041 25.0666 15.3244C26.1183 16.2446 26.6529 17.7257 26.6529 19.7503V29.5136C25.943 29.6713 25.0841 29.8466 24.0675 30.0131C23.0508 30.1884 22.0166 30.2673 20.9649 30.2673C19.9746 30.2673 19.0719 30.1796 18.2743 29.9956C17.4768 29.8115 16.7932 29.5223 16.2323 29.1104C15.6714 28.7073 15.2419 28.1902 14.9352 27.5591C14.6284 26.9281 14.4794 26.1656 14.4794 25.2805C14.4794 24.4128 14.6547 23.6416 15.0141 22.9842C15.3646 22.3269 15.8467 21.7748 16.4602 21.3453C17.0649 20.9071 17.766 20.5829 18.5636 20.3725C19.3523 20.1622 20.1849 20.0482 21.0613 20.0482C21.7099 20.0482 22.2445 20.0658 22.6564 20.0921C23.0683 20.1184 23.4189 20.1622 23.7081 20.1972V19.6363H23.6994ZM23.6994 22.5899C23.3926 22.546 23.007 22.511 22.5425 22.4672C22.078 22.4233 21.6836 22.4058 21.3593 22.4058C20.0973 22.4058 19.142 22.6424 18.4847 23.1069C17.8274 23.5714 17.4943 24.2813 17.4943 25.2366C17.4943 25.8414 17.6083 26.3234 17.8274 26.6652C18.0465 27.007 18.3269 27.2699 18.66 27.454C18.993 27.638 19.3611 27.752 19.773 27.787C20.1762 27.8308 20.5618 27.8484 20.9299 27.8484C21.3944 27.8484 21.8764 27.8221 22.376 27.7695C22.8755 27.7169 23.3137 27.6468 23.6994 27.5416V22.5899Z" fill="#E6E6E6"/>
<path d="M29.9394 14.317C30.141 14.2731 30.3513 14.2469 30.5616 14.2293C30.772 14.2118 30.9911 14.203 31.219 14.203C31.4205 14.203 31.6309 14.2118 31.8587 14.2293C32.0778 14.2469 32.2969 14.2819 32.4985 14.317C32.516 14.3608 32.5423 14.4835 32.5774 14.6938C32.6037 14.9042 32.6387 15.132 32.665 15.3774C32.6913 15.6228 32.7264 15.8507 32.7527 16.0786C32.779 16.3064 32.7965 16.4467 32.7965 16.508C32.9981 16.1837 33.2435 15.8682 33.5239 15.5615C33.8044 15.2547 34.1462 14.983 34.5406 14.7376C34.935 14.4923 35.3819 14.2994 35.8815 14.1592C36.381 14.019 36.9332 13.9489 37.5379 13.9489C38.4494 13.9489 39.2995 14.0979 40.0795 14.4046C40.8595 14.7114 41.5256 15.1759 42.0865 15.8156C42.6474 16.4554 43.0769 17.2705 43.3924 18.2521C43.7079 19.2337 43.8656 20.3993 43.8656 21.7402C43.8656 24.4221 43.1382 26.5167 41.6921 28.0241C40.2373 29.5316 38.1865 30.2941 35.5309 30.2941C35.0839 30.2941 34.6282 30.2678 34.1637 30.2064C33.6992 30.1451 33.2873 30.0662 32.9455 29.961V37.1126C32.7001 37.1564 32.4459 37.1827 32.1655 37.2002C31.8938 37.2178 31.6396 37.2265 31.4205 37.2265C31.2014 37.2265 30.9473 37.2178 30.6756 37.2002C30.4039 37.1827 30.1497 37.1476 29.9306 37.1126V14.317H29.9394ZM32.9543 27.3668C33.3399 27.5071 33.7343 27.6122 34.1374 27.6736C34.5406 27.7349 35.0664 27.7612 35.7237 27.7612C36.4512 27.7612 37.126 27.6473 37.7307 27.4106C38.3355 27.174 38.8613 26.8147 39.2995 26.3327C39.7377 25.8419 40.0795 25.2284 40.3337 24.4922C40.5878 23.756 40.7105 22.8708 40.7105 21.8629C40.7105 20.2416 40.4126 18.9532 39.8166 17.9979C39.2206 17.0426 38.239 16.5694 36.8806 16.5694C36.3723 16.5694 35.8903 16.657 35.417 16.8411C34.9525 17.0251 34.5318 17.2968 34.1725 17.6649C33.8044 18.033 33.5152 18.4887 33.2873 19.0496C33.0594 19.6105 32.9543 20.2678 32.9543 21.0391V27.3668Z" fill="#E6E6E6"/>
<path d="M47.6167 16.6826H45.636C45.5922 16.5161 45.5659 16.3321 45.5484 16.1217C45.5308 15.9114 45.5221 15.701 45.5221 15.4995C45.5221 15.2979 45.5308 15.0876 45.5484 14.8772C45.5659 14.6669 45.6009 14.4741 45.636 14.3163H50.5702V29.9253C50.3511 29.9691 50.097 29.9954 49.8253 30.0129C49.5536 30.0305 49.2994 30.0392 49.0803 30.0392C48.8787 30.0392 48.6421 30.0305 48.3616 30.0129C48.09 29.9954 47.8358 29.9604 47.6167 29.9253V16.6826Z" fill="#E6E6E6"/>
<path d="M57.0469 22.8618C57.0908 24.562 57.529 25.8153 58.3703 26.6041C59.2117 27.3928 60.4562 27.7872 62.0951 27.7872C63.5324 27.7872 64.9084 27.5331 66.2055 27.0248C66.372 27.3315 66.5035 27.6996 66.5999 28.1378C66.7051 28.576 66.7576 29.0055 66.7839 29.4349C66.1179 29.7154 65.3817 29.9345 64.5754 30.0747C63.7778 30.2149 62.8839 30.285 61.9111 30.285C60.4913 30.285 59.273 30.0835 58.2564 29.6891C57.2397 29.2947 56.4072 28.7338 55.7498 28.0151C55.0925 27.2964 54.6105 26.4463 54.3037 25.456C53.997 24.4744 53.848 23.3964 53.848 22.2132C53.848 21.0563 53.997 19.9784 54.2862 18.9705C54.5754 17.9626 55.0312 17.0949 55.6359 16.35C56.2406 15.6138 57.0119 15.0178 57.9321 14.5884C58.8524 14.1502 59.9479 13.9311 61.2012 13.9311C62.2791 13.9311 63.2169 14.1151 64.032 14.4832C64.847 14.8513 65.5219 15.3509 66.074 15.9907C66.6174 16.6304 67.0381 17.3929 67.3185 18.2693C67.599 19.1545 67.748 20.1098 67.748 21.144C67.748 21.4244 67.7392 21.7312 67.7129 22.0379C67.6954 22.3534 67.6691 22.6251 67.6516 22.8442H57.0469V22.8618ZM64.7769 20.6094C64.7769 20.0397 64.6981 19.4963 64.5491 18.9792C64.4001 18.4622 64.1722 18.0152 63.883 17.6296C63.585 17.2439 63.2169 16.9372 62.7612 16.7006C62.3054 16.4639 61.7621 16.35 61.131 16.35C59.8953 16.35 58.9488 16.7268 58.2827 17.4718C57.6254 18.2255 57.2222 19.2685 57.082 20.6094H64.7769Z" fill="#E6E6E6"/>
<path d="M71.0784 14.3163C71.2975 14.2725 71.5166 14.2462 71.7182 14.2287C71.9198 14.2111 72.1301 14.2024 72.358 14.2024C72.5771 14.2024 72.805 14.2111 73.0241 14.2287C73.2432 14.2462 73.4535 14.2813 73.6288 14.3163C73.6901 14.6231 73.7515 15.0174 73.8129 15.517C73.8742 16.0166 73.9005 16.4372 73.9005 16.779C74.3299 16.0867 74.8908 15.4907 75.592 14.9824C76.2931 14.4741 77.1871 14.2199 78.2826 14.2199C78.4491 14.2199 78.6156 14.2287 78.7821 14.2374C78.9574 14.2462 79.0977 14.2637 79.2204 14.2813C79.2642 14.4653 79.2905 14.6581 79.308 14.8597C79.3255 15.0613 79.3343 15.2716 79.3343 15.4995C79.3343 15.7449 79.3167 15.999 79.2905 16.262C79.2642 16.5249 79.2203 16.779 79.1853 17.0244C79.0188 16.9806 78.8522 16.9631 78.6857 16.9631C78.5104 16.9631 78.379 16.9631 78.2738 16.9631C77.7304 16.9631 77.2046 17.042 76.705 17.191C76.2055 17.3399 75.7585 17.6116 75.3641 17.9973C74.9697 18.3829 74.6542 18.9087 74.4176 19.5836C74.1809 20.2497 74.067 21.1173 74.067 22.169V29.9253C73.8479 29.9691 73.5937 29.9954 73.3221 30.0129C73.0504 30.0305 72.7962 30.0392 72.5771 30.0392C72.358 30.0392 72.1038 30.0305 71.8322 30.0129C71.5605 29.9954 71.2975 29.9604 71.0521 29.9253V14.3163H71.0784Z" fill="#E6E6E6"/>
<path d="M53.436 5.13179H50.4912L52.5771 3.04592C52.4106 2.81805 52.2265 2.59895 52.0337 2.39737C51.8321 2.19579 51.6218 2.01175 51.3852 1.85399L49.2993 3.93986V0.995101C49.0276 0.95128 48.7472 0.924988 48.4579 0.924988H48.4492C48.16 0.924988 47.8795 0.95128 47.6078 0.995101V3.93986L45.5219 1.85399C45.2941 2.02051 45.075 2.20456 44.8734 2.39737C44.6718 2.59895 44.4965 2.80929 44.33 3.04592L46.4247 5.13179H43.4799C43.4799 5.13179 43.4098 5.68394 43.4098 5.97315C43.4098 6.26237 43.4361 6.54282 43.4799 6.81451H46.4247L44.3388 8.90039C44.6631 9.35612 45.0662 9.75928 45.5307 10.0923L47.6166 8.00644V10.9512C47.8883 10.995 48.1687 11.0213 48.4579 11.0213H48.4667C48.7559 11.0213 49.0364 10.995 49.3081 10.9512V8.00644L51.3939 10.0923C51.6218 9.9258 51.8409 9.74175 52.0425 9.54894C52.2441 9.34736 52.4281 9.13702 52.5859 8.90039L50.5 6.81451H53.4448C53.4886 6.54282 53.5149 6.26237 53.5149 5.97315V5.96439C53.5061 5.68394 53.4886 5.40348 53.436 5.13179ZM49.72 5.98192C49.72 6.35878 49.6499 6.71811 49.5272 7.05115C49.1941 7.17385 48.8348 7.24396 48.4579 7.24396C48.0811 7.24396 47.7217 7.17385 47.3887 7.05115C47.266 6.71811 47.1959 6.35878 47.1959 5.98192V5.97315C47.1959 5.59629 47.266 5.23696 47.3887 4.90392C47.7217 4.78123 48.0811 4.71111 48.4579 4.71111C48.8348 4.71111 49.1941 4.78123 49.5272 4.90392C49.6499 5.23696 49.72 5.59629 49.72 5.98192Z" fill="#E6E6E6"/>
</g>
<defs>
<clipPath id="clip0_92_36093">
<rect width="80" height="40" fill="white"/>
</clipPath>
</defs>
</svg>
